<svg xmlns="http://www.w3.org/2000/svg" version="1.1" xmlns:xlink="http://www.w3.org/1999/xlink" xmlns:svgjs="http://svgjs.com/svgjs" width="1440" height="1000" preserveAspectRatio="none" viewBox="0 0 1440 1000">
    <g mask="url(&quot;#SvgjsMask1031&quot;)" fill="none">
        <rect width="1440" height="1000" x="0" y="0" fill="rgba(243, 190, 194, 1)"></rect>
        <path d="M0,473.994C94.193,463.636,196.279,480.627,274.576,427.248C352.236,374.303,383.304,278.131,416.356,190.143C447.456,107.353,475.982,20.841,459.909,-66.125C444.141,-151.441,372.317,-209.789,328.59,-284.725C272.612,-380.655,274.916,-542.573,166.871,-568.309C56.647,-594.564,-6.136,-423.07,-114.6,-390.293C-221.614,-357.954,-367.897,-466.667,-443.128,-383.973C-517.639,-302.071,-413.281,-170.422,-415.343,-59.717C-417.053,32.1,-470.356,117.01,-454.142,207.4C-435.135,313.361,-409.174,437.73,-316.336,492.228C-223.367,546.803,-107.158,485.778,0,473.994" fill="#f0acb1"></path>
        <path d="M1440 1335.778C1507.855 1334.259 1580.3600000000001 1343.945 1637.435 1307.215 1694.499 1270.492 1711.598 1198.337 1745.191 1139.376 1782.546 1073.812 1857.3980000000001 1016.216 1845.704 941.669 1833.9940000000001 867.0219999999999 1740.0819999999999 839.936 1689.424 783.873 1640.195 729.3910000000001 1616.704 652.606 1552.43 617.1 1481.031 577.658 1394.11 554.192 1315.961 577.563 1237.907 600.905 1179.984 669.1669999999999 1140.333 740.337 1104.833 804.0550000000001 1111.57 879.346 1107.26 952.159 1103.3220000000001 1018.698 1093.864 1085.073 1116.211 1147.87 1139.829 1214.238 1175.874 1280.8229999999999 1236.802 1316.182 1296.873 1351.0439999999999 1370.563 1337.3319999999999 1440 1335.778" fill="#f6d0d3"></path>
    </g>
    <defs>
        <mask id="SvgjsMask1031">
            <rect width="1440" height="1000" fill="#ffffff"></rect>
        </mask>
    </defs>
</svg>